<svg xmlns="http://www.w3.org/2000/svg" width="736.25" height="364">
<defs><marker id="arrow-filled" refX="6" refY="3" markerWidth="6" markerHeight="6" orient="auto"><path d="M0,0 6,3 0,6z" style="stroke: none; fill: black;"></path></marker><marker id="arrow-open" refX="6" refY="3" markerWidth="6" markerHeight="6" orient="auto"><path d="M0,0 6,3 0,6" style="stroke-width: 1; fill: none; stroke: black;"></path></marker></defs><rect width="71" height="38" style="stroke-width: 1; fill: none; stroke: black;" x="10" y="20"></rect><g><text fill="black" font-family="Helvetica,sans-Serif" x="45.5" y="39" style="text-anchor: middle; alignment-baseline: central;">kernel</text></g><rect width="71" height="38" style="stroke-width: 1; fill: none; stroke: black;" x="10" y="306"></rect><g><text fill="black" font-family="Helvetica,sans-Serif" x="45.5" y="325" style="text-anchor: middle; alignment-baseline: central;">kernel</text></g><path d="M45.5,58 v248" style="stroke-width: 1; fill: none; stroke: black;"></path><rect width="79.5" height="38" style="stroke-width: 1; fill: none; stroke: black;" x="323.25" y="20"></rect><g><text fill="black" font-family="Helvetica,sans-Serif" x="363" y="39" style="text-anchor: middle; alignment-baseline: central;">atsintc</text></g><rect width="79.5" height="38" style="stroke-width: 1; fill: none; stroke: black;" x="323.25" y="306"></rect><g><text fill="black" font-family="Helvetica,sans-Serif" x="363" y="325" style="text-anchor: middle; alignment-baseline: central;">atsintc</text></g><path d="M363,58 v248" style="stroke-width: 1; fill: none; stroke: black;"></path><g><text fill="black" font-family="Helvetica,sans-Serif" x="130" y="87" style="text-anchor: middle; alignment-baseline: central;">1.create task </text></g><path d="M45.5,73 C85.5,73 85.5,106 45.5,106" style="stroke-width: 1; fill: none; stroke: black;" marker-end="url(#arrow-filled)"></path><g><text fill="black" font-family="Helvetica,sans-Serif" x="204.25" y="121" style="text-anchor: middle; alignment-baseline: central;">2.push task </text></g><path d="M45.5,134 h317.5" style="stroke-width: 1; fill: none; stroke: black;" marker-end="url(#arrow-filled)"></path><g><text fill="black" font-family="Helvetica,sans-Serif" x="519.75" y="163" style="text-anchor: middle; alignment-baseline: central;">3.inner priority queue enqueue </text></g><path d="M363,149 C403,149 403,182 363,182" style="stroke-width: 1; fill: none; stroke: black;" marker-end="url(#arrow-filled)"></path><g><text fill="black" font-family="Helvetica,sans-Serif" x="204.25" y="197" style="text-anchor: middle; alignment-baseline: central;">4.fetch task </text></g><path d="M45.5,210 h317.5" style="stroke-width: 1; fill: none; stroke: black;" marker-end="url(#arrow-filled)"></path><g><text fill="black" font-family="Helvetica,sans-Serif" x="519.75" y="239" style="text-anchor: middle; alignment-baseline: central;">5.inner priority queue dequeue </text></g><path d="M363,225 C403,225 403,258 363,258" style="stroke-width: 1; fill: none; stroke: black;" marker-end="url(#arrow-filled)"></path><g><text fill="black" font-family="Helvetica,sans-Serif" x="204.25" y="273" style="text-anchor: middle; alignment-baseline: central;">6.return the highest priority task </text></g><path d="M363,286 h-317.5" style="stroke-width: 1; fill: none; stroke: black;" marker-end="url(#arrow-filled)"></path></svg>